<svg xmlns="http://www.w3.org/2000/svg" viewBox="0 0 2480 3508">
    <!-- nested petals background SVG -->
    <g>
        <svg xmlns="http://www.w3.org/2000/svg" xmlns:xlink="http://www.w3.org/1999/xlink" id="background-petal"
            style="enable-background:new 0 0 595.2 841.92;" version="1.1" viewBox="0 0 595.2 841.92" x="0px"
            xml:space="preserve" y="0px">
            <style type="text/css">
                .st0 {
                    fill: #00FD00;
                }

                /* The animation code */
                @keyframes example {
                    from {
                        opacity: 0.7;
                    }

                    to {
                        opacity: 0;
                    }
                }

                #petal1 {
                    animation-timing-function: ease-in;
                    animation-delay: 0.27s;
                    animation-duration: 3.37s;
                    animation-name: example;
                    animation-iteration-count: infinite;
                    animation-direction: alternate;
                }

                #petal2 {
                    animation-timing-function: linear;
                    animation-delay: 0.11s;
                    animation-duration: 2.81s;
                    animation-name: example;
                    animation-iteration-count: infinite;
                    animation-direction: alternate;
                }

                #petal3 {
                    animation-timing-function: linear;
                    animation-delay: 1.57s;
                    animation-duration: 2.19s;
                    animation-name: example;
                    animation-iteration-count: infinite;
                    animation-direction: alternate;
                }

                #petal4 {
                    animation-timing-function: ease-out;
                    animation-delay: 0.08s;
                    animation-duration: 1.21s;
                    animation-name: example;
                    animation-iteration-count: infinite;
                    animation-direction: alternate;
                }

                #petal5 {
                    animation-timing-function: ease;
                    animation-delay: 1.97s;
                    animation-duration: 3.93s;
                    animation-name: example;
                    animation-iteration-count: infinite;
                    animation-direction: alternate;
                }

                #petal6 {
                    animation-timing-function: ease-in;
                    animation-delay: 0.53s;
                    animation-duration: 3.21s;
                    animation-name: example;
                    animation-iteration-count: infinite;
                    animation-direction: alternate;
                }

                #petal7 {
                    animation-timing-function: linear;
                    animation-delay: 0.42s;
                    animation-duration: 2.52s;
                    animation-name: example;
                    animation-iteration-count: infinite;
                    animation-direction: alternate;
                }

                #petal8 {
                    animation-timing-function: ease-out;
                    animation-delay: 0.20s;
                    animation-duration: 1.94s;
                    animation-name: example;
                    animation-iteration-count: infinite;
                    animation-direction: alternate;
                }

                #petal9 {
                    animation-timing-function: ease-out;
                    animation-delay: 0.38s;
                    animation-duration: 1.73s;
                    animation-name: example;
                    animation-iteration-count: infinite;
                    animation-direction: alternate;
                }

                #petal10 {
                    animation-timing-function: ease-in;
                    animation-delay: 0.72s;
                    animation-duration: 1.18s;
                    animation-name: example;
                    animation-iteration-count: infinite;
                    animation-direction: alternate;
                }

                #petal11 {
                    animation-timing-function: ease-in;
                    animation-delay: 1.25s;
                    animation-duration: 0.64s;
                    animation-name: example;
                    animation-iteration-count: infinite;
                    animation-direction: alternate;
                }

                #petal12 {
                    animation-timing-function: ease-in;
                    animation-delay: 0.07s;
                    animation-duration: 3.20s;
                    animation-name: example;
                    animation-iteration-count: infinite;
                    animation-direction: alternate;
                }

                #petal13 {
                    animation-timing-function: ease-in;
                    animation-delay: 1.98s;
                    animation-duration: 1.50s;
                    animation-name: example;
                    animation-iteration-count: infinite;
                    animation-direction: alternate;
                }

                #petal14 {
                    animation-timing-function: ease-in;
                    animation-delay: 0.53s;
                    animation-duration: 1.73s;
                    animation-name: example;
                    animation-iteration-count: infinite;
                    animation-direction: alternate;
                }

                #petal15 {
                    animation-timing-function: ease-in;
                    animation-delay: 1.28s;
                    animation-duration: 2.95s;
                    animation-name: example;
                    animation-iteration-count: infinite;
                    animation-direction: alternate;
                }

                #petal16 {
                    animation-timing-function: ease-out;
                    animation-delay: 1.60s;
                    animation-duration: 1.50s;
                    animation-name: example;
                    animation-iteration-count: infinite;
                    animation-direction: alternate;
                }

                #petal17 {
                    animation-timing-function: ease;
                    animation-delay: 1.89s;
                    animation-duration: 3.60s;
                    animation-name: example;
                    animation-iteration-count: infinite;
                    animation-direction: alternate;
                }

                #petal18 {
                    animation-timing-function: ease-out;
                    animation-delay: 0.74s;
                    animation-duration: 1.13s;
                    animation-name: example;
                    animation-iteration-count: infinite;
                    animation-direction: alternate;
                }

                #petal19 {
                    animation-timing-function: ease-out;
                    animation-delay: 0.84s;
                    animation-duration: 1.30s;
                    animation-name: example;
                    animation-iteration-count: infinite;
                    animation-direction: alternate;
                }

                #petal20 {
                    animation-timing-function: ease-out;
                    animation-delay: 1.61s;
                    animation-duration: 1.32s;
                    animation-name: example;
                    animation-iteration-count: infinite;
                    animation-direction: alternate;
                }
            </style>
            <g id="petal1">
                <path class="st0"
                    d="M191.3,64.98c3.9,0.22,6.83,1.48,9.8,2.6c2.85,1.08,5.48,2.63,8.02,4.29c7.76,5.08,15.38,10.35,22.49,16.34   c14.16,11.93,25.26,26.17,32.94,43.05c2.74,6.02,5.41,12.07,7.9,18.19c0.81,1.98,1.57,3.98,2.41,5.95c0.4,0.94,0.38,1.57-0.63,2.17   c-4.47,2.67-8.64,5.77-12.52,9.25c-0.83,0.74-1.3,0.51-1.94-0.2c-3.29-3.71-6.49-7.5-9.95-11.05   c-12.17-12.49-23.43-25.8-35.17-38.68c-1.61-1.77-3.1-3.66-4.55-5.57c-5.84-7.71-12.01-15.17-17.49-23.15   c-2.31-3.36-4.36-6.9-6.12-10.55c-0.95-1.96-1.45-4.23-1.58-6.48C184.71,67.69,188.02,64.84,191.3,64.98z" />
            </g>
            <g id="petal2">
                <path class="st0"
                    d="M296.67,124.9c1.35,6.49,2.37,13.04,3.31,19.6c0.31,2.14,0.24,2.18-1.86,2.75   c-5.18,1.41-10.18,3.28-15.04,5.54c-2.25,1.04-2.25,1.04-3.62-1.17c-4.78-7.66-9.14-15.56-13.37-23.53   c-5.81-10.94-11.43-21.96-15.65-33.63c-1.52-4.2-3.1-8.39-4.38-12.67c0.07-0.48-0.07-0.9-0.4-1.26   c-1.89-5.26-3.47-10.61-4.93-15.99c0.08-0.44-0.04-0.82-0.29-1.18c-0.08-0.24-0.15-0.49-0.23-0.73c0.15-0.48,0.02-0.9-0.26-1.29   c-1-3.6-1.69-7.26-2.23-10.95c0.19-0.34,0.14-0.65-0.11-0.95c-0.12-1.13-0.25-2.25-0.37-3.38c0.32-0.64,0.33-1.27-0.01-1.9   c-0.12-1.37,0.06-2.72,0.45-4.03c0.69-2.34,2.28-3.58,4.72-3.72c0.96-0.05,1.92-0.01,2.88-0.07c1.93-0.12,3.6,0.5,5.13,1.64   c4.19,3.14,7.76,6.93,11.09,10.92c11.65,14,20.77,29.53,27.47,46.45c2.15,5.42,3.64,11.08,5.09,16.73   c-0.16,0.47-0.03,0.89,0.24,1.29c0.24,1.01,0.47,2.02,0.71,3.04c-0.14,0.47-0.02,0.89,0.25,1.28c0.43,2.05,0.86,4.1,1.28,6.15   C296.32,124.24,296.4,124.59,296.67,124.9z" />
            </g>
            <g id="petal3">
                <path class="st0"
                    d="M304.83,77.87c-0.11-10.73,0.74-22.19,3.35-33.46c1.04-4.52,2.22-8.99,4.7-13.01c2.7-4.36,7.1-4.86,10.85-1.39   c4.23,3.92,6.26,9,7.95,14.27c3.31,10.32,4.98,20.94,5.85,31.73c0.76,9.42,1.28,18.82,0.82,28.26c-0.39,8.07-1.53,16.06-2.98,24   c-0.85,4.64-1.64,9.28-2.06,13.98c-0.11,1.26-0.5,1.81-1.88,1.67c-5.03-0.5-10.06-0.27-15.09,0.07c-2.09,0.14-2.12,0.09-2.48-1.92   c-1.42-8.11-3.75-16.02-5.31-24.1C306.05,105,304.62,91.92,304.83,77.87z" />
            </g>
            <g id="petal4">
                <path class="st0"
                    d="M377.6,79.98c0.2,14.25-3.46,30-8.65,45.47c-2.26,6.74-4.37,13.54-6.6,20.29c-0.44,1.35-0.64,3.1-1.79,3.8   c-1.14,0.69-2.55-0.5-3.81-0.89c-4.97-1.54-10.02-2.77-15.15-3.58c-1.27-0.2-1.75-0.62-1.73-1.95c0.15-11.2-0.32-22.39-0.11-33.59   c0.2-10.58,1.47-21.04,3.42-31.43c2.19-11.65,5.54-22.99,9.13-34.26c1.31-4.11,3.84-7.52,6.48-10.85c0.96-1.21,2.25-1.68,3.78-1.76   c4.96-0.24,8.81,2.35,10.37,7.18c1.28,3.97,1.95,8.08,2.67,12.17C377.18,59.58,378.03,68.64,377.6,79.98z" />
            </g>
            <g id="petal5">
                <path class="st0"
                    d="M450.29,70.15c0.1,2.3-0.74,4.38-1.47,6.49c-3.34,9.76-7.9,18.98-12.46,28.2   c-5.13,10.36-11.5,19.92-18.73,28.92c-7,8.72-13.6,17.78-21.33,25.91c-1.76,1.85-3.59,3.64-5.37,5.48c-0.6,0.62-1.1,0.7-1.83,0.15   c-4.54-3.43-9.32-6.48-14.37-9.08c-1.14-0.58-0.89-1.29-0.59-2.17c1.56-4.53,3.05-9.09,4.66-13.6   c3.97-11.11,8.28-22.07,13.69-32.57c2.9-5.64,6.59-10.75,10.35-15.83c8.53-11.49,18.39-21.69,29.62-30.56   c2.14-1.69,4.4-3.19,6.87-4.36c2.47-1.17,5.08-1.76,7.5-0.14c1.99,1.33,3.79,2.99,4.19,5.59c-0.31,1.53-0.44,3.06,0.04,4.59   c-0.12,0.64-0.24,1.29-0.36,1.93C450.57,69.46,450.43,69.81,450.29,70.15z" />
            </g>
            <g id="petal6">
                <path class="st0"
                    d="M473.56,90.04c5.03-0.14,10.99,5.32,8.61,11.7c-2.44,6.56-5.48,12.85-8.52,19.15   c-1.25,2.58-2.49,5.16-3.95,7.62c-4.27,7.17-9.32,13.76-14.99,19.87c-12.83,13.85-27.35,25.71-42.89,36.37   c-1.7,1.16-1.49,1.62-3.15-0.49c-3.58-4.52-7.5-8.73-11.82-12.56c-0.99-0.88-1.02-1.52-0.31-2.59   c8.47-12.79,16.57-25.85,26.43-37.66c9.91-11.88,20.73-22.86,32.96-32.36c4.48-3.48,9.28-6.49,14.67-8.46   C471.68,90.24,472.76,90.16,473.56,90.04z" />
            </g>
            <g id="petal7">
                <path class="st0"
                    d="M515.52,151.16c2.24-0.03,4.46-0.36,6.71-0.17c3.79,0.32,6.43,2.15,7.8,5.76c0.56,1.49,0.56,2.94-0.02,4.43   c-0.92,2.38-2.41,4.29-4.4,5.87c-7.89,6.28-16.11,12.07-24.76,17.28c-9.27,5.59-19.22,9.77-28.94,14.44   c-9.76,4.69-19.91,8.19-30.34,11.01c-4.84,1.31-9.66,2.72-14.49,4.08c-1.78,0.5-1.8,0.49-2.43-1.18   c-1.72-4.57-3.64-9.05-6.01-13.31c-0.47-0.84-0.7-1.47,0.29-2.22c8.95-6.84,17.29-14.47,26.82-20.57   c8.64-5.53,17.75-10.15,27.07-14.4c6.34-2.89,12.91-5.2,19.59-7.03c7.08-1.93,14.33-3.27,21.67-3.89   C514.57,151.43,515.05,151.4,515.52,151.16z" />
            </g>
            <g id="petal8">
                <path class="st0"
                    d="M505.37,200.12c4,0,8-0.08,12,0.02c6.04,0.14,11.9,1.4,17.58,3.41c2.82,1,4.95,2.87,6.28,5.61   c1.57,3.26,0.78,6.61-2.18,8.69c-1.11,0.78-2.33,1.4-3.54,2.01c-16.09,8.03-33.14,12.96-50.86,15.81   c-12.57,2.02-25.21,3.26-37.91,3.91c-4.63,0.24-9.24,0.87-13.88,0.95c-0.48,0.01-0.96,0.01-1.44,0.02   c-0.83,0.01-1.28-0.25-1.32-1.22c-0.22-5.61-1.11-11.13-2.45-16.58c-0.28-1.14-0.07-1.73,1.05-2.22   c11.05-4.84,21.87-10.23,33.44-13.81c13.06-4.04,26.43-6.27,40.11-6.45c1.04-0.01,2.08,0,3.12,0   C505.37,200.21,505.37,200.17,505.37,200.12z" />
            </g>
            <g id="petal9">
                <path class="st0"
                    d="M503.86,283.56c-7.85-0.32-13.6-0.62-19.35-0.78c-10.34-0.29-20.53-1.58-30.55-4.22   c-5.64-1.49-11.34-2.73-17.02-4.01c-3.12-0.71-6.14-1.77-9.19-2.69c-1.13-0.34-1.54-0.72-1.17-2.02c1.31-4.61,2.36-9.29,2.93-14.06   c0.14-1.14,0.64-1.42,1.67-1.52c5.33-0.5,10.65-1.12,15.97-1.62c5.73-0.53,11.43-1.28,17.17-1.76c6.57-0.55,13.1-0.25,19.63,0.27   c8.04,0.65,16.05,1.7,23.99,3.14c10.18,1.85,20.04,4.77,29.6,8.7c2.37,0.97,4.63,2.17,6.74,3.62c2.04,1.4,3.52,3.25,4.34,5.58   c1.02,2.92-1.06,6.74-4.1,7.22c-5.92,0.94-11.65,2.81-17.62,3.51c-2.7,0.32-5.42,0.5-8.12,0.57   C513.11,283.66,507.43,283.56,503.86,283.56z" />
            </g>
            <g id="petal10">
                <path class="st0"
                    d="M516,333.07c-6.8-0.91-13.38-2.78-19.97-4.61c-0.38-0.31-0.82-0.38-1.3-0.3c-3.95-1.01-7.88-2.09-11.84-3.03   c-10.71-2.55-20.89-6.52-30.87-11.08c-11.94-5.45-23.49-11.65-35.12-17.71c-0.69-0.36-1.5-0.58-1.94-1.36   c1.62-2.75,3.3-5.46,4.82-8.26c1.18-2.17,2.17-4.45,3.21-6.7c0.83-1.8,0.81-1.86,2.85-1.64c2.38,0.26,4.76,0.62,7.13,0.94   c0.3,0.23,0.62,0.28,0.96,0.11c3.68,0.6,7.36,1.21,11.04,1.81c0.3,0.23,0.62,0.29,0.96,0.12c0.64,0.12,1.28,0.23,1.91,0.35   c0.3,0.23,0.62,0.27,0.96,0.11c6.33,1.24,12.69,2.32,18.92,4.07c10.67,3,20.71,7.51,30.56,12.5c8.87,4.49,17.26,9.72,25,15.98   c2.11,1.71,4.16,3.51,6.03,5.48c1.61,1.7,2.94,3.58,3.69,5.82c0.7,2.1,0.32,3.89-1.28,5.48c-1.59,1.58-3.38,2.66-5.65,2.85   c-1.12-0.13-2.24-0.15-3.36,0.02c-1.92-0.28-3.84-0.56-5.75-0.85C516.66,332.94,516.34,332.91,516,333.07z" />
            </g>
            <g id="petal11">
                <path class="st0"
                    d="M490.66,374.91c-1.81,0.26-3.58-0.64-5.42-1.05c-5.53-1.23-10.98-2.83-16.42-4.39   c-4.43-1.27-8.63-3.32-12.9-5.12c-9.5-4.01-18.78-8.46-27.58-13.9c-7.92-4.9-15.39-10.3-21.61-17.32   c-4.08-4.6-8.77-8.65-12.5-13.58c-0.29-0.38-0.59-0.75-0.9-1.12c-0.53-0.64-0.4-1.15,0.3-1.57c0.14-0.08,0.26-0.19,0.39-0.28   c3.97-2.72,7.55-5.91,10.81-9.44c0.93-1.01,1.68-1.11,2.88-0.49c4.94,2.55,10.02,4.84,15.08,7.12c8.88,4.02,17.53,8.48,26.22,12.88   c8.58,4.34,16.56,9.66,24.27,15.39c6.16,4.57,12.49,8.93,18.09,14.22c2.68,2.53,5.15,5.25,6.98,8.49c0.67,1.18,1.23,2.41,1.56,3.75   c0.37,1.5,0.02,2.85-1.19,3.63C496.33,373.67,493.98,375.49,490.66,374.91z" />
            </g>
            <g id="petal12">
                <path class="st0"
                    d="M443.04,417.99c-3.5,0.12-6.73-0.9-9.38-3.07c-5.88-4.81-12.35-8.86-17.77-14.23   c-12.36-12.25-23.86-25.17-32.55-40.39c-4.68-8.18-9.43-16.32-13.5-24.83c-0.54-1.14-0.84-2.39-1.25-3.6   c-0.53-1.58-0.26-2.14,1.29-2.63c0.98-0.31,1.97-0.63,2.96-0.9c4.27-1.19,8.1-3.28,11.84-5.59c1.9-1.17,1.96-1.17,3.7,0.31   c10.68,9.05,21.08,18.4,30.38,28.91c2.12,2.4,4.03,4.98,5.82,7.62c6.95,10.27,13.39,20.85,18.9,31.97   c1.91,3.85,3.38,7.9,4.41,12.09c0.43,1.77,0.94,3.51,1.22,5.32c0.59,3.82-0.77,6.7-4.07,8.69   C444.37,417.78,443.71,417.89,443.04,417.99z" />
            </g>
            <g id="petal13">
                <path class="st0"
                    d="M332.03,359.48c0.04-7.43,0.19-14.86,1.03-22.26c0.25-2.14,0.21-2.12,2.45-1.95c4.6,0.34,9.16,0.06,13.66-1   c0.93-0.22,1.86-0.44,2.79-0.61c1.03-0.19,1.77,0.07,2.36,1.1c8.07,14.16,14.83,28.85,17.85,45c1.45,7.72,2.28,15.51,1.64,23.37   c-0.52,6.45-1.45,12.85-2.61,19.22c-0.61,3.34-2.21,5.73-5.38,7.08c-1.51,0.64-2.78,1.94-4.65,1.54c-2.43-0.53-4.85-1.06-6.72-2.89   c-0.69-0.67-1.43-1.31-1.99-2.07c-3.66-4.95-7.32-9.89-9.61-15.69c-2.64-6.69-5.12-13.43-7.31-20.28   c-2.59-8.07-3.63-16.35-3.52-24.8C332.05,363.32,332.03,361.4,332.03,359.48z" />
            </g>
            <g id="petal14">
                <path class="st0"
                    d="M328.34,371.41c-0.25,10.44-1.45,20.5-4.09,30.34c-1.51,5.63-2.81,11.32-4.1,17   c-0.88,3.85-2.36,7.45-4.16,10.93c-1.5,2.91-2.94,5.85-4.69,8.63c-1.25,1.99-2.73,3.73-4.9,4.8c-1.36,0.66-2.71,0.86-4.16,0.36   c-3.31-1.15-5.72-3.07-7.17-6.49c-2.98-7.02-4.18-14.39-5.01-21.87c-0.81-7.31-1.34-14.64-1.23-22c0.25-15.8,3.01-31.13,8.54-45.94   c1.9-5.09,4.03-10.08,6.07-15.12c0.74-1.83,1.17-2.09,3-1.18c2.38,1.18,4.94,1.69,7.44,2.43c2.91,0.85,5.91,1.11,8.92,1.27   c2.48,0.13,2.49,0.16,2.74,2.49c0.86,8.1,1.99,16.17,2.58,24.3C328.38,364.8,328.24,368.23,328.34,371.41z" />
            </g>
            <g id="petal15">
                <path class="st0"
                    d="M224.62,385.29c-0.07-3.11,0.6-5.83,1.52-8.47c2.88-8.3,5.92-16.54,10.24-24.25   c5.59-9.98,12.46-18.94,20.88-26.7c4.53-4.17,9.39-7.96,14.23-11.76c1.45-1.13,1.51-1.03,2.9,0.33c1.51,1.48,3.35,2.63,4.9,4.02   c2.62,2.35,5.83,3.29,8.87,4.68c1.13,0.52,1.45,1.21,1.15,2.42c-3.87,15.51-10.17,29.9-19.55,42.91   c-5.26,7.29-10.89,14.21-17.95,19.85c-4.27,3.42-8.96,6.12-13.97,8.29c-1.72,0.74-3.36,0.86-5.05-0.05   c-1.26-0.68-2.64-1.11-3.91-1.79c-2.09-1.1-3.21-2.79-3.73-5C224.78,388.2,224.54,386.63,224.62,385.29z" />
            </g>
            <g id="petal16">
                <path class="st0"
                    d="M259.6,302.48c0.93,0.59,1.62,1.44,2.42,2.18c1.14,1.06,2.49,1.91,3.8,2.75c1.1,0.71,1.04,1.4,0.27,2.3   c-0.57,0.67-1.04,1.41-1.58,2.11c-5.26,6.74-10.2,13.74-16.07,19.97c-8.29,8.81-17.19,16.93-27.35,23.59   c-6.95,4.55-13.57,9.6-20.88,13.6c-4.21,2.3-8.45,4.52-12.83,6.48c-1.56,0.7-3.17,0.94-4.88,0.99c-5.03,0.16-8.5-4.64-8.5-8.62   c0-2.78,0.58-5.39,1.73-7.89c0.8-1.74,1.63-3.48,2.58-5.13c6.52-11.32,13.99-21.96,22.82-31.62   c10.84-11.87,23.57-21.03,38.68-26.72c3.29-1.24,6.58-2.47,9.88-3.68c1.99-0.73,2-0.71,3.29,1.04c0.47,0.63,0.88,1.31,1.32,1.96   c0.36,0.44,0.33,1.2,1.07,1.33c0.13,0.18,0.27,0.36,0.4,0.55c0.05,0.53,0.54,0.7,0.84,1.02c0,0,0.02,0.12,0.02,0.12   c0.43,0.36,0.51,1.04,1.14,1.2l0,0c0.3,0.34,0.3,0.92,0.85,1.06l0.03,0.01C258.96,301.53,258.95,302.23,259.6,302.48z" />
            </g>
            <g id="petal17">
                <path class="st0"
                    d="M211.08,260.81c7.19,0,14.39-0.01,21.58,0.01c2.64,0.01,2.64,0.04,3.46,2.49c1.63,4.84,3.56,9.53,6.26,13.89   c1.15,1.86,1.13,1.93-0.89,3.02c-8.76,4.73-18.04,8.15-27.68,10.58c-10.87,2.74-21.9,3.53-33.07,2.78   c-6.86-0.46-13.72-0.85-20.49-2.14c-4.66-0.89-9.05-2.6-13.41-4.38c-2.12-0.86-3.79-2.39-5.25-4.1c-1.88-2.21-1.75-5.64,0.18-7.97   c1.04-1.25,2.41-2.08,3.79-2.9c6.68-3.95,13.96-6.24,21.45-8.06c12.92-3.13,26.04-3.93,39.27-3.56c1.6,0.04,3.2,0.01,4.79,0.01   C211.08,260.59,211.08,260.7,211.08,260.81z" />
            </g>
            <g id="petal18">
                <path class="st0"
                    d="M179.48,225.72c12.21-0.29,24.05,1.3,35.74,4.29c4.72,1.21,9.51,2.15,14.26,3.24   c1.88,0.43,1.91,0.46,1.87,2.34c-0.12,5.86,0.33,11.65,1.77,17.35c0.06,0.23,0.12,0.47,0.15,0.7c0.15,1.06,0.02,1.76-1.36,1.92   c-3.09,0.37-6.17,0.91-9.24,1.43c-4.89,0.83-9.78,1.61-14.64,2.57c-4.75,0.94-9.56,0.74-14.34,0.94   c-4.24,0.18-8.45,0.52-12.67,0.95c-4.38,0.45-8.79,0.06-13.18-0.05c-12.93-0.33-25.58-2.63-38.19-5.31   c-2.65-0.56-5.36-0.82-7.92-1.85c-4.18-1.69-6.1-4.98-6.73-9.18c-0.27-1.79,0.66-3.24,1.89-4.48c1.94-1.96,4.3-3.3,6.73-4.53   c2.3-1.16,4.72-1.97,7.19-2.65c5.47-1.5,10.95-2.97,16.44-4.42c6.76-1.79,13.68-2.46,20.63-2.86   C171.78,225.88,175.69,225.51,179.48,225.72z" />
            </g>
            <g id="petal19">
                <path class="st0"
                    d="M231.84,219.72c-1.86-0.41-3.73-0.83-5.59-1.24c-0.4-0.27-0.83-0.34-1.3-0.22   c-6.69-1.56-13.44-2.89-20.05-4.75c-7-1.96-13.76-4.66-20.16-8.17c-12.66-6.93-24.46-15.17-35.78-24.07   c-4.77-3.75-8.77-8.4-13.13-12.63c-1.37-1.33-2.26-3.08-3.15-4.79c-1.06-2.05-1.01-4.17-0.49-6.31c0.44-1.84,1.63-3.09,3.45-3.67   c1.62-0.52,3.25-0.7,4.96-0.54c10.02,0.95,19.22,4.49,28.28,8.64c20.5,9.38,39.73,20.92,58.27,33.69c2.9,1.99,5.81,3.97,8.76,5.88   c0.96,0.62,1.22,1.17,0.82,2.33c-1.76,5.04-3.18,10.19-3.96,15.49C232.46,219.47,232.15,219.59,231.84,219.72z" />
            </g>
            <g id="petal20">
                <path class="st0"
                    d="M140.62,129.12c-1.35-4.97,1.12-7.95,5.84-9.19c2.91-0.76,5.88-0.58,8.82-0.22c1.95,0.24,3.91,0.78,5.82,1.09   c9.86,1.56,19.17,4.89,28.41,8.42c14.11,5.38,26.82,13.15,37.97,23.34c6.8,6.2,12.7,13.29,18.84,20.12   c1.28,1.43,2.49,2.92,3.78,4.34c0.69,0.76,0.82,1.34,0.11,2.25c-3.88,5-7.26,10.32-9.95,16.06c-0.53,1.13-1.09,1.05-2.05,0.58   c-6.36-3.14-12.87-5.94-19.35-8.82c-3.92-1.74-7.75-3.69-11.66-5.48c-6.32-2.89-12.18-6.59-17.94-10.43   c-6.72-4.47-13.46-8.94-19.94-13.74c-8.75-6.47-16.85-13.74-24.48-21.5c-1.62-1.65-2.99-3.54-3.93-5.69   C140.83,129.87,140.72,129.49,140.62,129.12z" />
            </g>
        </svg>
    </g>
    <!-- nested petals foreground SVG -->
    <g>
        <svg xmlns="http://www.w3.org/2000/svg" xmlns:xlink="http://www.w3.org/1999/xlink"
            style="enable-background:new 0 0 595.2 841.92;" version="1.1" viewBox="0 0 595.2 841.92" x="0px"
            xml:space="preserve" y="0px">
            <defs>
                <!-- this filter adds a blur to the petals -->
                <filter id="f1" x="0" y="0">
                    <feGaussianBlur in="SourceGraphic" stdDeviation="4" />
                </filter>
            </defs>
            <style type="text/css">
                .st3 {
                    fill: #D6FF9C;
                    filter: url(#f1)
                }
            </style>
            <g id="petal1_xA0_Image_copy">
                <g>
                    <g id="petal1">
                        <path class="st3"
                            d="M264.47,164.13c-2.3-2.62-7.83-10.14-10.35-12.72c-7.86-8.07-15.51-16.68-22.91-25     c-3.95-4.45-8.04-9.05-12.13-13.53c-1.54-1.69-8.12-10.26-10.05-12.73c-3.88-4.98-8.18-9.74-11.77-14.96     c-2.11-3.07-4.26-6.36-6.26-9.57c-0.84-1.35-0.94-8.13,6.72-3.79c3.45,2.13,6.1,3.78,8.08,5.08c6.72,4.4,14.58,9.73,21.91,15.91     c13.68,11.53,24.23,25.31,31.35,40.95c3.15,6.92,11.56,24.27,11.85,25.01c0.07,0.16,0.13,0.33,0.2,0.49     C268.85,160.77,266.62,162.39,264.47,164.13z" />
                    </g>
                    <g id="petal2">
                        <path class="st3"
                            d="M285.37,151.52c-3.59-5.89-9.5-17.8-13.99-26.24c-5.44-10.24-11.1-21.22-15.31-32.86     c0,0-3.3-7.99-4.28-11.15c-1.3-3.99-3.87-11.76-5.36-17.23c-0.6-2.43-2.26-9.42-2.77-12.68c-0.27-1.81-0.77-4.85-0.77-4.85     c-0.09-4.8,1.98-4.84,2.6-4.68c0,0,1.52-0.03,2.13,0.43c3.24,2.42,5.61,6.14,9.24,10.51c11.08,13.31,19.99,28.39,26.5,44.82     c1.87,4.71,7.24,24.12,8.17,28.5c1.06,5.24,3.57,16.8,4.28,21.58C292.33,148.73,288.84,150.02,285.37,151.52z" />
                    </g>
                    <g id="petal3">
                        <path class="st3"
                            d="M319.71,143.61c-0.7-3.47-2.05-12.67-2.85-16.01c-0.84-3.53-1.72-7.19-2.41-10.75     c-2.62-13.58-3.81-26.3-3.63-38.89c0,0,0.96-22.5,3.19-32.2c0.93-4.03,0.94-7.73,2.96-11c0.31-0.51,2.43-2.52,3.87-0.6     c2.48,3.31,3.46,6.82,5.11,11.96c2.85,8.89,4.62,18.55,5.58,30.38c0.66,8.18,1.28,17.85,0.8,27.48     c-0.34,6.88-1.45,14.18-2.39,23.24c-0.38,3.67-1.18,12.55-1.65,16.25c-0.86-0.03-1.74-0.04-2.65-0.04     C323.61,143.43,321.59,143.51,319.71,143.61z" />
                    </g>
                    <g id="petal4">
                        <path class="st3"
                            d="M355.49,148.03c-3.79-1.13-7.54-2.05-11.22-2.76c0.01-4.28,0.62-14.32,0.83-18.48     c0.3-5.91,0.52-11.4,0.63-17.16c0.18-9.56,1.26-19.52,3.32-30.43c2.2-11.68,5.3-22.78,8.39-33.39c3.1-10.64,9.62-7.95,10.26-5.4     c0.75,3.02,1.49,7.02,2.17,11.28c1.4,9.15,2.13,20.72,1.72,28.22c-0.49,7.63-2.59,26.89-8.34,43.63     c-1.31,3.82-2.54,7.72-3.75,11.48C358.71,137.51,356.31,145.55,355.49,148.03z" />
                    </g>
                    <g id="petal5">
                        <path class="st3"
                            d="M386.22,162.93c-2.79-1.95-5.64-3.75-8.51-5.38c0.21-0.63,3.03-5.96,3.61-7.22     c1.45-3.15,2.14-5.08,3.13-7.85c3.18-8.91,7.58-20.58,13.38-31.84c2.7-5.25,6.2-10.09,9.84-15     c8.21-11.06,17.15-20.97,27.87-29.44c1.99-1.57,3.35-2.54,5.02-3.74c5.82-4.2,4.87,6.73,2.77,12.89     c-3.24,9.46-7.96,17.97-12.34,26.84c-4.66,9.42-10.55,18.52-18.03,27.83c-1.86,2.32-3.7,4.66-5.53,7.01     c-4.91,6.27-9.63,13.06-15.12,18.84C391.47,156.74,387.07,162.07,386.22,162.93z" />
                    </g>
                    <g id="petal6">
                        <path class="st3"
                            d="M407.3,182.03c-2.48-2.94-5.08-5.71-7.79-8.29c0.86-1.31,5.67-7.07,6.53-8.38     c6.72-10.26,13.62-20.58,21.52-30.05c10.5-12.58,20.98-22.88,32.04-31.47c4.64-3.6,8.54-6.23,12.69-8.05     c4.63-2.03,5.21,2.33,4.53,4.25c-2.23,6.25-8.58,18.26-8.58,18.26c-1.22,2.53-2.38,4.93-3.7,7.16     c-3.87,6.5-8.66,12.85-14.23,18.86C439.37,156.11,422.66,171.27,407.3,182.03z" />
                    </g>
                    <g id="petal7">
                        <path class="st3"
                            d="M423.66,209.39c-1.11-2.73-2.22-5.2-3.37-7.51c2.11-1.66,8.73-6.47,11.03-7.94     c6.28-4.01,11.68-8.49,17.66-12.32c7.38-4.73,15.75-9.17,26.32-13.99c5.8-2.64,12.09-4.9,18.68-6.7     c6.61-1.8,13.16-3.41,19.68-4.01c1.61-0.22,10.67-1.59,11.19,1.49c0.34,1.66-1.62,3.83-3.06,4.94     c-8.01,6.12-15.92,10.96-24.04,15.85c-6.59,3.97-13.48,7.18-20.77,10.57c-2.56,1.19-5.12,2.38-7.67,3.61     c-8.6,4.14-18.19,7.61-29.3,10.62c-3.06,0.83-5.76,1.97-8.81,2.84C430.56,207.02,424.3,209.21,423.66,209.39z" />
                    </g>
                    <g id="petal8">
                        <path class="st3"
                            d="M430.09,235.56c-0.31-3.18-0.82-6.42-1.53-9.76c1.54-0.69,8.05-3.19,10.08-3.9     c8.83-3.04,16.74-6.82,25.27-9.46c12.7-3.93,25.63-6.01,38.42-6.18c0.36,0,9.04,0,9.04,0s15.44,0.29,20.93,2.24     c1.37,0.48,4.28,2.29,3.32,4.04c-2.73,4.98-33.52,14.23-51.93,17.2c-11.86,1.91-41.35,4.38-43.3,4.55     C438.79,234.43,431.61,235.47,430.09,235.56z" />
                    </g>
                    <g id="petal9">
                        <path class="st3"
                            d="M496.93,277.26c-4.49-0.2-8.36-0.36-12.25-0.47c-10.49-0.3-20.04-1.61-29.19-4.02     c-4.9-1.29-17.23-4.06-17.23-4.06c-1.58-0.36-8.86-1.94-10.51-2.45c0.64-2.58,1.14-5.05,1.54-7.43     c1.5-0.15,15.68,0.07,18.43-0.19c2.56-0.24,13.98-1.49,17.11-1.75c2.2-0.18,14.04-0.1,18.65,0.27c7.82,0.63,15.69,1.66,23.4,3.06     c9.62,1.75,18.22,3.81,27.43,7.6c2.04,0.84,4.82,2.16,6.51,3.32c0.86,0.59,1.92,0.98,1.92,2.51c-0.43,4.12-14.94,3.53-24.1,3.87     C516.63,277.6,499.11,277.36,496.93,277.26z" />
                    </g>
                    <g id="petal10">
                        <path class="st3"
                            d="M515.88,328.46c-5.79-1.79-28.82-8.5-31.61-9.16c-9.02-2.15-18.48-5.55-29.77-10.7     c-9.82-4.48-19.54-9.23-29.01-14.18c-0.75-0.39-6.83-3.57-7.57-3.96c0.63-1.07,1.25-2.16,1.85-3.27c0.9-1.66,1.68-3.33,2.43-4.96     c0.82,0.11,20.31,4.15,20.31,4.15c3.11,0.6,18.85,3.96,23.58,5.29c11.21,3.15,21.64,8.11,29.47,12.07     c9.04,4.58,16.88,9.58,23.94,15.29c2.22,1.79,3.95,3.36,5.46,4.95c1.07,1.13,1.78,2.16,2.2,3.21     C526.6,331.27,517.81,328.99,515.88,328.46z" />
                    </g>
                    <g id="petal11">
                        <path class="st3"
                            d="M486.17,369.18c-4.63-1.61-15.7-5.48-15.7-5.48c-2.98-0.85-11.17-4.44-12.22-4.88     c-10.67-4.51-19.17-8.79-26.76-13.48c-9.07-5.61-23.72-19.88-25.42-21.61c-1.69-1.72-7.05-7.83-8.55-9.53     c2.08-1.67,4.11-3.5,6.07-5.47c4.17,2.07,31.78,17.74,39.08,21.44l3.61,1.83c7.28,3.68,14.72,8.4,23.4,14.85     c1.19,0.88,2.38,1.76,3.58,2.63c5,3.66,9.72,7.11,13.97,11.13c2.78,2.62,3.87,3.1,5.89,6.52     C493.66,368.03,492.24,371.3,486.17,369.18z" />
                    </g>
                    <g id="petal12">
                        <path class="st3"
                            d="M437.66,410.8c-2.4-1.62-4.67-3.32-6.89-4.98c-3.82-2.84-7.5-6.26-10.66-9.39     c-9.9-9.81-22.43-23.12-31.57-39.11l-1.53-2.67c-3.89-6.79-10.56-18.82-13.99-25.9c3.88-1.23,7.35-3.03,10.36-4.81     c8.98,7.66,21.82,21.77,30.88,32.02c1.73,1.96,3.43,4.18,5.34,7.01c7.52,11.11,13.57,21.33,18.49,31.27     c1.71,3.45,5.53,12.43,5.52,15.32C443.62,410.6,441.78,413.57,437.66,410.8z" />
                    </g>
                    <g id="petal13">
                        <path class="st3"
                            d="M356.9,423.01c-3.66-4.7-6.46-9.85-8.46-14.9c-2.85-7.23-5.2-13.74-7.18-19.91     c-2.28-7.11-3.34-14.6-3.23-22.89c0.02-1.34,0.01-2.68,0.01-4.02c0,0-0.49-19.91-0.01-25.51c0.16,0,0.33,0,0.49,0     c3.87,0,7.67-0.43,11.3-1.28c8.53,15.35,14.09,33.62,16.48,46.36c1.58,8.44,2.08,15.36,1.56,21.78     c-0.46,5.74-1.29,11.83-2.53,18.63c-0.34,1.86-0.65,2.31-1.31,2.97C363.37,424.88,359.4,426.22,356.9,423.01z" />
                    </g>
                    <g id="petal14">
                        <path class="st3"
                            d="M300.6,434.64c-2.77-6.52-3.83-13.56-4.57-20.18c-0.91-8.22-1.29-14.97-1.19-21.24     c0.24-15.3,2.99-30.08,8.16-43.94c1.29-3.45,4.19-12.45,5.58-15.85c0.16-0.38,0.31-0.76,0.47-1.14c0.99,0.31,1.96,0.57,2.87,0.82     c0.58,0.16,1.16,0.31,1.74,0.48c2.58,0.76,5.18,1.12,7.67,1.33c0.27,1.53,0.26,8.77,0.25,11.67c-0.02,5.26,0.72,19.16,0.72,21.12     c0,5.57-1.49,23.75-3.84,32.5c-1.56,5.8-2.56,11.69-4.15,17.22c-0.82,2.86-1.85,6.22-3.41,9.97c0,0-1.91,4.94-4.09,8.21     C303.82,440.13,301.25,436.17,300.6,434.64z" />
                    </g>
                    <g id="petal15">
                        <path class="st3"
                            d="M233.2,390.76c-1.31-0.17-2.25-1.2-2.44-2c-0.39-1.66-0.16-6.09,1.06-9.97c2.43-7.79,5.64-15.85,9.81-23.28     c5.44-9.7,12.07-18.18,19.71-25.22c3.59-3.3,10.75-10.93,14.71-14.04c0.28,0.22,0.56,0.43,0.83,0.64     c0.67,0.51,1.3,0.99,1.81,1.45c2.4,2.16,4.99,3.38,7.36,4.38c-3.88,14.14-13.1,31.08-21.15,42.25     c-4.39,6.09-9.83,13.07-16.83,18.68C244.39,386.57,235.54,391.05,233.2,390.76z" />
                    </g>
                    <g id="petal16">
                        <path class="st3"
                            d="M182.24,370.45c-0.5,0-0.98-0.26-1.44-0.78c-0.6-0.69-0.81-1.48-0.81-1.84c0-1.9,0.39-3.66,1.18-5.39     c0.7-1.53,1.47-3.15,2.33-4.65c6.74-11.7,13.95-21.7,22.05-30.57c10.73-11.75,22.63-19.97,36.37-25.15     c2.48-0.93,9.39-5.34,11.87-6.26c0.44,0.84,0.97,1.5,1.52,2.01c0.02,0.03,0.05,0.07,0.07,0.1l0.08,0.51l1.19,1     c0.24,0.35,0.57,0.77,1.01,1.19c0.19,0.28,0.39,0.53,0.6,0.76c0.67,1.2,1.55,2.1,2.64,2.73c0.14,0.13,0.39,0.38,0.58,0.57     c0.29,0.29,0.58,0.59,0.89,0.87c0.22,0.2,0.44,0.39,0.66,0.58c-0.97,1.25-6.35,5.99-7.31,7.25c-3.86,5.07-7.51,9.86-11.65,14.27     c-9.17,9.74-17.52,16.95-26.27,22.68c-2.28,1.49-4.53,3.04-6.71,4.54c-4.66,3.21-9.06,6.24-13.76,8.81     c-4.95,2.71-8.78,4.64-12.41,6.27c-0.64,0.29-1.42,0.43-2.62,0.47L182.24,370.45z" />
                    </g>
                    <g id="petal17">
                        <path class="st3"
                            d="M188.61,287.84c-2.44,0-4.95-0.08-7.47-0.25c0,0-13.83-0.91-19.76-2.05c-4.1-0.79-8.71-2.07-12.87-3.67     c-4.13-1.58-0.85-4.73,0-5.23c6.53-3.87,13.78-5.29,19.91-6.77c9.64-2.34,20.11-3.47,32-3.47c1.51,0,22.48-0.56,22.48-0.56     c3.81-0.46,11.32-1.14,13.52-1c1.32,3.74,2.7,6.97,4.22,9.89c-7.01,3.45-19.97,8.16-28.3,10.26     C204.8,286.88,196.82,287.84,188.61,287.84z" />
                    </g>
                    <g id="petal18">
                        <path class="st3"
                            d="M167.99,255.41c-21.56-0.42-42.75-6.21-44-6.73c-3.73-1.54-4.09-5.25,1.64-7.28     c1.74-0.62,4.28-1.53,6.78-2.21c5.93-1.63,11.87-3.21,16.38-4.41c6.59-1.75,21.05-2.77,21.86-2.83     c2.28-0.15,10.78-0.26,11.68-0.26c10.25,0,20.53,1.35,31.41,4.14c3.18,0.81,16.75,2.35,17.45,2.51     c0.05,4.18,0.41,8.09,1.07,11.81c-1.3,0.21-13.47,1.42-13.47,1.42c-3.9,0.65-7.73,0.92-11.72,1.71c-3.01,0.6-13.03,1.33-14.3,1.4     C189.61,254.86,174.87,255.54,167.99,255.41z" />
                    </g>
                    <g id="petal19">
                        <path class="st3"
                            d="M233.32,214.84c-0.81-0.29-22.37-5.86-26.8-7.1c-6.68-1.87-13.04-4.45-18.9-7.66     c-11.14-6.1-22.57-13.79-34.95-23.53c-2.95-2.32-11.21-10.82-12.65-12.22c-0.64-0.62-2.25-3.26-2.06-4.34     c0.38-1.08,1.87-0.71,2.08-0.69c9.56,0.91,18.31,4.44,26.35,8.12c18.44,8.44,67.2,38.39,69.07,39.64     C234.6,209.74,233.89,212.33,233.32,214.84z" />
                    </g>
                    <g id="petal20">
                        <path class="st3"
                            d="M241.57,192.13c-4.01-1.89-12.88-6.79-16.8-8.52c0,0-13.31-6.66-15.06-7.47     c-6.03-2.76-18.15-10.66-18.15-10.66c-6.21-4.13-12.63-8.41-18.66-12.87c-8.02-5.94-15.79-12.77-23.77-20.88     c-1.11-1.13-1.97-2.32-2.55-3.55l-0.19-0.68c-0.14-0.53,0.46-1.47,1.58-1.77c0.86-0.23,1.83-0.33,2.96-0.33     c1,0,2.11,0.08,3.61,0.27c0.85,0.1,4.63,0.9,5.61,1.06c9.46,1.5,18.63,4.82,27.21,8.1c13.45,5.13,25.58,12.59,36.07,22.16     c5.09,4.64,10.12,9.63,14.92,15.05c1.33,1.51,9.17,9.31,9.66,9.89C245.56,185.3,243.43,188.68,241.57,192.13z" />
                    </g>
                </g>
            </g>
        </svg>
    </g>
</svg>
